# xmcd
#
# Track frame offsets:
#	225
#	17515
#	36514
#	53621
#	68437
#	85698
#	103257
#	122636
#
# Disc length: 1881
#
# Revision: 1
# Processed by: cddbd v1.5.1PL0 Copyright (c) Steve Scherf et al.
# Submitted via: ExactAudioCopy v0.95a5
# Normalized: r0:TDELIM( - )
#
DISCID=5d075608
DTITLE=Various Artist - Universal Country
DYEAR=2004
DGENRE=Country
TTITLE0=Emerson Drive - What If
TTITLE1=Jake Mathews - Signs of You Everywhere
TTITLE2=Shedaisy - 360degrees of You
TTITLE3=Josh Turner - I Had One One Time
TTITLE4=Jedd Hughes - I'm Your Man
TTITLE5=Julia Roberts - If You Called Yesterday
TTITLE6=Josh Gracin - Wheels
TTITLE7=Cross Canadian Ragweed - Alabama
EXTD=
EXTT0=
EXTT1=
EXTT2=
EXTT3=
EXTT4=
EXTT5=
EXTT6=
EXTT7=
PLAYORDER=
